{
  "asset": {
    "version": "2.0",
    "generator": "jefrey-fallback"
  },
  "scene": 0,
  "scenes": [
    {
      "nodes": [
        0
      ]
    }
  ],
  "nodes": [
    {
      "mesh": 0,
      "name": "IronMan_torso"
    }
  ],
  "meshes": [
    {
      "primitives": [
        {
          "attributes": {
            "POSITION": 0
          },
          "indices": 1,
          "material": 0
        }
      ],
      "name": "torso"
    }
  ],
  "materials": [
    {
      "pbrMetallicRoughness": {
        "baseColorFactor": [
          0.04,
          0.52,
          1,
          1
        ],
        "metallicFactor": 0.8,
        "roughnessFactor": 0.3
      },
      "name": "iron_blue"
    }
  ],
  "accessors": [
    {
      "bufferView": 0,
      "componentType": 5126,
      "count": 24,
      "type": "VEC3",
      "max": [
        0.3,
        0.6,
        0.15
      ],
      "min": [
        -0.3,
        -0.6,
        -0.15
      ]
    },
    {
      "bufferView": 1,
      "componentType": 5123,
      "count": 36,
      "type": "SCALAR"
    }
  ],
  "bufferViews": [
    {
      "buffer": 0,
      "byteOffset": 0,
      "byteLength": 288
    },
    {
      "buffer": 0,
      "byteOffset": 288,
      "byteLength": 72
    }
  ],
  "buffers": [
    {
      "uri": "iron_man.bin",
      "byteLength": 360
    }
  ]
}